<svg xmlns="http://www.w3.org/2000/svg" viewBox="0 0 102 58"><defs><style>.cls-1,.cls-2{fill:#3b3e40;}.cls-2{fill-rule:evenodd;}</style></defs><title>logo-bpf</title><g id="HEADER"><path class="cls-1" d="M1,16.41188V1.18363H8.48386a4.74344,4.74344,0,0,1,3.40964,1.1128,3.9962,3.9962,0,0,1,1.16883,3.03793,3.03825,3.03825,0,0,1-.52815,1.75519A2.88879,2.88879,0,0,1,11.20907,8.1783a4.493,4.493,0,0,1,.90215.47019,2.73684,2.73684,0,0,1,.73232.73335,3.71865,3.71865,0,0,1,.49273,1.05476,4.97612,4.97612,0,0,1,.18337,1.43367,4.1851,4.1851,0,0,1-1.397,3.3152,6.34712,6.34712,0,0,1-4.27839,1.22641Zm3.06476-12.591V7.12407H8.07135q1.9251,0,1.923-1.65193A1.51571,1.51571,0,0,0,9.50271,4.2113a2.61255,2.61255,0,0,0-1.6126-.39045ZM8.09428,13.8201A2.313,2.313,0,0,0,9.811,13.20058a2.11352,2.11352,0,0,0,.61679-1.56,1.72411,1.72411,0,0,0-.60421-1.467A2.74043,2.74043,0,0,0,8.14005,9.7164H4.06476v4.1037Z"/><path class="cls-1" d="M21.16191,16.41188a4.43161,4.43161,0,0,1-.17921-1.00933,3.735,3.735,0,0,1-1.396.953A5.34462,5.34462,0,0,1,17.571,16.711a4.03107,4.03107,0,0,1-2.8513-.86065,2.95345,2.95345,0,0,1-.90215-2.23585,4.078,4.078,0,0,1,.38958-1.93882,2.92046,2.92046,0,0,1,1.0741-1.13524,5.18749,5.18749,0,0,1,1.6366-.608c.6344-.12783,1.323-.24733,2.071-.35646a3.97154,3.97154,0,0,0,1.51361-.42327A.95908.95908,0,0,0,20.89,8.292a.95669.95669,0,0,0-.5178-.85958,2.6684,2.6684,0,0,0-1.38336-.30837,1.99149,1.99149,0,0,0-1.4752.45823,2.14052,2.14052,0,0,0-.56036,1.21551h-2.77a5.16069,5.16069,0,0,1,.28642-1.606,3.06809,3.06809,0,0,1,.84593-1.26041,4.01093,4.01093,0,0,1,1.521-.81565,7.941,7.941,0,0,1,2.28241-.286,7.4201,7.4201,0,0,1,2.24912.298,3.63281,3.63281,0,0,1,1.48352.86012A3.3171,3.3171,0,0,1,23.661,7.38659a6.65216,6.65216,0,0,1,.25112,1.893v7.13233Zm-.20524-5.52807a1.57659,1.57659,0,0,1-.66053.36908,11.88108,11.88108,0,0,1-1.26153.2964,4.26412,4.26412,0,0,0-1.76152.64249,1.36391,1.36391,0,0,0-.47929,1.12264c0,.84333.47929,1.26243,1.44182,1.26243a2.86082,2.86082,0,0,0,1.06365-.1941,2.59061,2.59061,0,0,0,1.41887-1.308,2.1423,2.1423,0,0,0,.21666-.95087Z"/><path class="cls-1" d="M25.12359,16.41188V1h2.97632V16.41188Z"/><path class="cls-1" d="M35.65258,8.981h2.747v3.21076a5.47791,5.47791,0,0,1-.26348,1.70923,3.98707,3.98707,0,0,1-.823,1.44468,3.90977,3.90977,0,0,1-1.41258.99683,5.17217,5.17217,0,0,1-2.04495.36843,5.38278,5.38278,0,0,1-2.10021-.36843,3.976,3.976,0,0,1-1.4272-.98593,3.76673,3.76673,0,0,1-.8104-1.44468,5.94208,5.94208,0,0,1-.25112-1.74364V2.07774h2.95233v3.05h2.74495V7.2378H32.21894v4.63247a2.94735,2.94735,0,0,0,.398,1.6638,1.46663,1.46663,0,0,0,1.30836.584,1.51148,1.51148,0,0,0,1.30634-.57356,2.70986,2.70986,0,0,0,.42094-1.62884Z"/><path class="cls-1" d="M39.56849,3.77446V1h2.97313V3.77446Zm0,12.63742V5.12775h2.97313V16.41188Z"/><path class="cls-1" d="M53.94139,12.3301a4.78182,4.78182,0,0,1-.56047,1.788,4.83707,4.83707,0,0,1-1.13341,1.37627,5.153,5.153,0,0,1-1.5678.89507,5.54268,5.54268,0,0,1-1.91161.32151,5.62793,5.62793,0,0,1-2.096-.37944,4.3449,4.3449,0,0,1-1.63553-1.146A5.32773,5.32773,0,0,1,43.973,13.281a8.36069,8.36069,0,0,1-.37817-2.64972,8.03784,8.03784,0,0,1,.37817-2.6137A4.65827,4.65827,0,0,1,45.03652,6.218a4.2937,4.2937,0,0,1,1.6574-1.04385,6.9274,6.9274,0,0,1,4.167-.04639,4.692,4.692,0,0,1,1.58028.871A4.1892,4.1892,0,0,1,53.50594,7.375a4.8327,4.8327,0,0,1,.45934,1.78907H50.9641a2.06247,2.06247,0,0,0-.697-1.36473,2.1542,2.1542,0,0,0-1.43232-.49317,2.44847,2.44847,0,0,0-.89179.16118,1.77255,1.77255,0,0,0-.7208.53871,2.81074,2.81074,0,0,0-.49177,1.0104,5.587,5.587,0,0,0-.18338,1.54793,4.62814,4.62814,0,0,0,.66362,2.75,1.89556,1.89556,0,0,0,1.53345.896,2.35226,2.35226,0,0,0,1.48864-.48163,1.92023,1.92023,0,0,0,.70843-1.39872Z"/><path class="cls-1" d="M60.28138,16.41188V1.18363h6.70577a5.09306,5.09306,0,0,1,2.01369.37891,4.53626,4.53626,0,0,1,1.53441,1.05433,4.7312,4.7312,0,0,1,.9845,1.57092A5.348,5.348,0,0,1,71.8625,6.1141,5.251,5.251,0,0,1,71.51975,8.029a4.2677,4.2677,0,0,1-.9845,1.514,4.55944,4.55944,0,0,1-1.53441.98592,5.35759,5.35759,0,0,1-2.01369.35486H63.46294v5.52807ZM66.48183,8.292a2.65762,2.65762,0,0,0,1.98148-.62935,2.27483,2.27483,0,0,0,.60837-1.63985,2.17474,2.17474,0,0,0-.60837-1.58353,2.68972,2.68972,0,0,0-1.98148-.61844H63.46294V8.292Z"/><path class="cls-1" d="M79.50476,16.41188a4.73093,4.73093,0,0,1-.18134-1.00933,3.70856,3.70856,0,0,1-1.39594.953,5.32182,5.32182,0,0,1-2.01573.35539,4.0258,4.0258,0,0,1-2.8481-.86065,2.95118,2.95118,0,0,1-.90428-2.23585,4.11686,4.11686,0,0,1,.38958-1.93882,2.91535,2.91535,0,0,1,1.07517-1.13524,5.20955,5.20955,0,0,1,1.63553-.608q.95-.19175,2.07407-.35646a3.93814,3.93814,0,0,0,1.50945-.42327.96275.96275,0,0,0,.38968-.86066.95959.95959,0,0,0-.51257-.85958,2.69637,2.69637,0,0,0-1.38656-.30837,1.9892,1.9892,0,0,0-1.47616.45823,2.14173,2.14173,0,0,0-.56249,1.21551H72.52612a5.04251,5.04251,0,0,1,.28535-1.606,3.08542,3.08542,0,0,1,.849-1.26041,3.96053,3.96053,0,0,1,1.5199-.81565,7.92422,7.92422,0,0,1,2.28145-.286,7.41714,7.41714,0,0,1,2.24806.298,3.60678,3.60678,0,0,1,1.48246.86012,3.2649,3.2649,0,0,1,.80944,1.39872,6.54283,6.54283,0,0,1,.25207,1.893v7.13233Zm-.20321-5.52807a1.615,1.615,0,0,1-.66458.36908,11.73017,11.73017,0,0,1-1.26058.2964,4.24721,4.24721,0,0,0-1.75842.64249,1.35769,1.35769,0,0,0-.48334,1.12264c0,.84333.48334,1.26243,1.44171,1.26243a2.872,2.872,0,0,0,1.06578-.1941,2.61578,2.61578,0,0,0,1.41984-1.308,2.15539,2.15539,0,0,0,.21665-.95087Z"/><path class="cls-1" d="M83.46644,16.41188V5.12775h2.79189V6.4711a3.59736,3.59736,0,0,1,.7688-.90084,3.29219,3.29219,0,0,1,.823-.49734,3.1242,3.1242,0,0,1,.85841-.21923,8.06218,8.06218,0,0,1,.89169-.04585h.39171V7.87976a5.06637,5.06637,0,0,0-.82609-.06787,2.409,2.409,0,0,0-2.72308,2.7285v5.87149Z"/><path class="cls-1" d="M97.5654,16.41188l-2.46994-5.06771-1.44288,1.49054v3.57717H90.67636V1h2.97622V9.41733L97.3592,5.12775H101l-3.77734,4.1518,3.68464,7.13233Z"/><path class="cls-1" d="M82.2862,46.44042H19.7138V23.87311H82.2862ZM21.40982,44.741H80.59124V25.57239H21.40982Z"/><path class="cls-2" d="M38.99032,39.60181V30.72786h-1.1522v-.48067h5.42952V32.4078H42.553c-.03541-.55314-.06976-1.10532-.10625-1.66957h-2.048V34.675H42.1801v-.80165h.72816v2.16542h-.71355v-.84291H40.4029v4.38984h1.149v.46912H37.84335v-.453Z"/><path class="cls-2" d="M58.74174,32.421h-.70426V30.244h6.12344v2.168h-.70011c-.025-.45662-.05835-.91014-.0719-1.36473-.00523-.24691-.08854-.34813-.35309-.332-.40323.02458-.81051.00684-1.22825.00684v8.86614h1.13864v.46036H59.23138V39.5971h1.15635V30.74454H58.85631C58.8209,31.28837,58.78132,31.83788,58.74174,32.421Z"/><path class="cls-2" d="M49.79111,33.67922A4.54631,4.54631,0,0,0,48.99,31.07588a2.30174,2.30174,0,0,0-3.81277,0,4.54475,4.54475,0,0,0-.80112,2.60334c-.03126.97544-.03542,1.95143,0,2.9242a4.26119,4.26119,0,0,0,1.01671,2.85281,2.20406,2.20406,0,0,0,3.38148,0,4.25639,4.25639,0,0,0,1.01682-2.85281C49.82546,35.63065,49.8213,34.65466,49.79111,33.67922Zm-1.65953,4.99a1.042,1.042,0,0,1-.72816,1.04268,1.33719,1.33719,0,0,1-.63867,0,1.04482,1.04482,0,0,1-.73018-1.04268c-.0063-1.17436-.00107-2.347,0-3.52031,0-1.18473-.0063-2.36786,0-3.55163a1.07226,1.07226,0,0,1,.70416-1.0088,1.18086,1.18086,0,0,1,.69071,0,1.06616,1.06616,0,0,1,.70214,1.0088c.00629,1.18377.00309,2.3669.00309,3.55163C48.13467,36.3222,48.13787,37.49486,48.13158,38.66922Z"/><path class="cls-2" d="M57.55627,39.06844c0,.002-.23543.39816-.4667.39816a.47241.47241,0,0,1-.44174-.31h0c-.04267-.09031.01248-2.095,0-2.98064a1.16694,1.16694,0,0,0-.68336-1.03071,6.22685,6.22685,0,0,0-.6105-.24894c.83441-.35443,1.1043-.63832,1.26986-1.40609a3.99554,3.99554,0,0,0-.05515-1.97644,1.60126,1.60126,0,0,0-1.25226-1.21659,3.32759,3.32759,0,0,0-.67919-.06627c-1.16254-.00619-2.32519-.00363-3.48773-.00256-.08544,0-.17089.00994-.25111.01507v.488H52.0412v8.87192H50.90362v.44935h2.54707V35.17082c.27084,0,.50734-.0016.74693,0,.6376.00257.91879.2918.91463.93056-.00416.915-.01035,1.83086,0,2.74581A1.24219,1.24219,0,0,0,56.17281,40.215a1.34023,1.34023,0,0,0,1.61473-.94456C57.71351,39.20622,57.63852,39.14,57.55627,39.06844Zm-3.09815-4.37829c-.31672.01464-.63343.00417-.97724.00417V30.7409c.3532,0,.68133-.02138,1.0053.00524a.56089.56089,0,0,1,.5626.63042q.00144,1.34261,0,2.6852A.55238.55238,0,0,1,54.45812,34.69015Z"/><path class="cls-1" d="M26.28605,56.8752V51.3249H27.3988L30.40547,54.903V51.3249H31.684v5.5503H30.57126l-3.00618-3.59481V56.8752Z"/><path class="cls-1" d="M38.21374,52.00722a2.95758,2.95758,0,0,1,0,4.17732A2.95531,2.95531,0,0,1,36.07065,57a3.04625,3.04625,0,0,1-2.15919-.81546,2.8369,2.8369,0,0,1-.86357-2.06368,3.10389,3.10389,0,0,1,.85528-2.10531,3.26842,3.26842,0,0,1,4.31057-.00833Zm-3.36361.8488a1.7018,1.7018,0,0,0-.49006,1.2565,1.65817,1.65817,0,0,0,.50664,1.2482,1.62711,1.62711,0,0,0,1.18736.45769,1.6382,1.6382,0,0,0,1.71106-1.71422,1.75106,1.75106,0,0,0-.48177-1.24817,1.77486,1.77486,0,0,0-1.22051-.47433A1.69843,1.69843,0,0,0,34.85013,52.856Z"/><path class="cls-1" d="M40.95612,51.3249l1.17955,3.678,1.17907-3.678h.88015l1.17956,3.678,1.17907-3.678h1.32876l-1.88514,5.5503H44.91755l-1.163-3.37015L42.59209,56.8752h-1.0796l-1.88514-5.5503Z"/><path class="cls-1" d="M50.30771,54.28728,48.3226,51.3249h1.51163L50.947,53.04739l1.11275-1.72249h1.51162l-1.98462,2.96238V56.8752h-1.279Z"/><path class="cls-1" d="M60.06646,52.40664h-1.852V53.4801h1.7608v1.08177h-1.7608v1.23156h1.852V56.8752h-3.131V51.3249h3.131Z"/><path class="cls-1" d="M63.45883,52.40664V56.8752h-1.279V52.40664H60.97587V51.3249h3.68739v1.08174Z"/><path class="cls-1" d="M68.65394,55.82671H66.56156l-.42374,1.04849H64.80905l2.23379-5.5503h1.17127l2.184,5.5503H69.0694Zm-.34865-.98191-.68071-1.864-.6895,1.864Z"/><path class="cls-1" d="M73.3824,51.3249a2.07584,2.07584,0,0,1,1.45311.45766,1.70846,1.70846,0,0,1,.5398,1.34805,1.78594,1.78594,0,0,1-.47348,1.30643,1.88452,1.88452,0,0,1-1.41167.491h-.78068V56.8752h-1.279V51.3249Zm-.67292,2.55463h.4569a.97721.97721,0,0,0,.689-.20805.77253.77253,0,0,0,.20773-.54918.73218.73218,0,0,0-.20773-.5409.99525.99525,0,0,0-.71387-.20805h-.432Z"/></g></svg>